<?xml version="1.0" encoding="UTF-8" standalone="no"?>
<svg
   xmlns:dc="http://purl.org/dc/elements/1.1/"
   xmlns:cc="http://creativecommons.org/ns#"
   xmlns:rdf="http://www.w3.org/1999/02/22-rdf-syntax-ns#"
   xmlns:svg="http://www.w3.org/2000/svg"
   xmlns="http://www.w3.org/2000/svg"
   xmlns:sodipodi="http://sodipodi.sourceforge.net/DTD/sodipodi-0.dtd"
   xmlns:inkscape="http://www.inkscape.org/namespaces/inkscape"
   width="938.26782"
   height="573.09686"
   viewBox="0 0 750.61426 458.47749"
   version="1.1"
   id="svg2"
   inkscape:version="0.48.4 r9939"
   sodipodi:docname="libcloud-logo-without-text.svg"
   inkscape:export-filename="/home/ilgiz/libcloud_logo/without-text/libcloud-logo-without-text-200-bg-white.png"
   inkscape:export-xdpi="19.184288"
   inkscape:export-ydpi="19.184288">
  <metadata
     id="metadata46">
    <rdf:RDF>
      <cc:Work
         rdf:about="">
        <dc:format>image/svg+xml</dc:format>
        <dc:type
           rdf:resource="http://purl.org/dc/dcmitype/StillImage" />
        <dc:title></dc:title>
      </cc:Work>
    </rdf:RDF>
  </metadata>
  <defs
     id="defs44" />
  <sodipodi:namedview
     pagecolor="#ffffff"
     bordercolor="#666666"
     borderopacity="1"
     objecttolerance="10"
     gridtolerance="10"
     guidetolerance="10"
     inkscape:pageopacity="1"
     inkscape:pageshadow="2"
     inkscape:window-width="1920"
     inkscape:window-height="1148"
     id="namedview42"
     showgrid="false"
     inkscape:snap-grids="true"
     inkscape:snap-page="false"
     inkscape:zoom="0.472"
     inkscape:cx="806.43557"
     inkscape:cy="341.91195"
     inkscape:window-x="1366"
     inkscape:window-y="24"
     inkscape:window-maximized="1"
     inkscape:current-layer="svg2"
     fit-margin-top="0"
     fit-margin-left="0"
     fit-margin-right="0"
     fit-margin-bottom="0" />
  <g
     id="g3004"
     transform="translate(-28.441638,-96.651704)">
    <g
       id="g3236">
      <path
         d="m 383.37,97.58 c 50.8,-4.66 103.02,8.34 145.62,36.4 10.57,6.89 20.61,14.6 29.85,23.19 1.78,1.29 3.26,4.34 5.83,3.4 32.91,-8.69 68.42,-7.24 100.48,4.22 29.5,10.35 56.1,28.95 75.72,53.33 23.64,29.17 37.44,66.29 38.13,103.87 0.99,37.83 -11.2,75.83 -33.91,106.09 -31.39,42.41 -83.27,68.87 -136.1,68.7 -15.51,0.37 -30.89,-2.23 -45.92,-5.76 -5.65,4.62 -10.82,9.91 -16.7,14.3 -29.54,23.47 -64.95,39.47 -102.08,46.16 -39.01,7.11 -79.87,3.78 -117.22,-9.55 -30.15,-10.67 -57.98,-27.79 -81.18,-49.78 -1.04,-1.47 -2.8,-0.98 -4.26,-0.64 -30.32,7.82 -62.82,7.01 -92.72,-2.28 C 124.42,481.7 101.65,468.6 82.92,451.09 60.83,430.55 44.39,404 35.71,375.11 c -9.52,-31.4 -9.7,-65.57 -0.47,-97.06 9.43,-32.57 28.91,-62.13 55.09,-83.68 26.14,-21.7 58.87,-35.42 92.72,-38.59 19.7,-1.93 39.75,-0.36 58.92,4.6 1.3,0.29 2.89,0.8 3.79,-0.57 37.11,-35.46 86.51,-57.68 137.61,-62.23 z"
         id="path6"
         inkscape:connector-curvature="0"
         style="fill:#bbc1c6" />
      <path
         d="m 315.63,130.59 c 37.95,-17.23 81.01,-22.85 122.14,-16.2 42.15,6.74 82.13,26.4 113.1,55.79 2.79,2.39 5.05,5.39 8.05,7.54 16.53,-4.99 33.74,-8.17 51.08,-7.73 38.35,0.3 76.35,15.51 104.39,41.67 22.25,20.68 38.15,48.05 45.29,77.56 8.98,36.39 4,75.93 -13.48,109.06 -16.94,32.49 -45.78,58.53 -79.77,72.19 -33.13,13.56 -71.02,15.05 -105.12,4.17 -1.38,-0.49 -3.08,-0.87 -4,0.6 -18.56,19.25 -40.88,34.83 -65.22,45.86 -37.02,16.83 -78.9,22.73 -119.14,16.83 -46.99,-6.74 -91.44,-29.63 -124.16,-64.02 -15.75,4.98 -32.21,8.11 -48.77,7.85 -36.2,0.49 -72.3,-12.6 -100.13,-35.68 -24.33,-20.1 -42.19,-47.82 -50.67,-78.2 -8.18,-29.01 -7.68,-60.42 1.49,-89.14 8.55,-27.22 24.89,-51.9 46.47,-70.55 24.68,-21.45 56.23,-34.94 88.83,-37.64 21.12,-1.91 42.55,0.81 62.69,7.36 19.08,-19.8 41.83,-36.06 66.93,-47.32 z"
         id="path8"
         inkscape:connector-curvature="0"
         style="fill:#feffff" />
      <path
         d="m 339.92,137.15 c 34.47,-11.75 72.21,-13.72 107.72,-5.63 41.27,9.21 79.28,32.02 106.89,64.04 36.86,-15.47 80.31,-13.9 116.05,3.96 31.06,15.1 55.92,42.24 68.54,74.35 14.72,36.56 12.99,79.3 -4.67,114.53 -14.66,30.15 -40.65,54.5 -71.58,67.39 -34.1,14.54 -74.08,14.82 -108.29,0.45 -23.61,27.08 -54.48,47.82 -88.67,58.95 -40.98,13.65 -86.4,13.3 -127.19,-0.9 -33.11,-11.27 -62.87,-31.67 -85.81,-58.01 -27.96,11.63 -59.74,13.72 -89.02,6.07 -25.59,-6.61 -49.29,-20.52 -67.31,-39.88 -23.18,-24.54 -37.02,-57.66 -38.1,-91.4 -1.07,-26.36 5.63,-52.92 18.79,-75.76 16.84,-29.4 44.75,-52.19 76.88,-62.92 31.88,-10.94 67.69,-9.77 98.82,3.14 23.13,-26.71 53.45,-47.11 86.95,-58.38 z"
         id="path10"
         inkscape:connector-curvature="0"
         style="fill:#027cff" />
      <path
         d="m 401.71,274.65 c 37.21,-16.03 75.68,-29.9 115.67,-37.1 21.31,33.91 34.95,72.93 37.68,112.98 -9.17,-7.07 -18.74,-13.64 -28.75,-19.48 -8.66,38.14 -24.82,74.68 -47.78,106.38 -18.88,25.76 -42.78,48.84 -72.17,62.14 -20.9,9.49 -45.63,12.85 -67.48,4.6 10.05,2.9 19.96,-2.51 27.73,-8.43 14.21,-11.24 25.37,-25.77 35.5,-40.65 18.83,-28.21 33.72,-58.86 46.45,-90.24 8.28,-20.58 15.4,-41.6 21.58,-62.9 -19.35,-8.85 -39.2,-16.56 -59.25,-23.67 -3.08,-1.16 -6.39,-1.83 -9.18,-3.63 z"
         id="path12"
         inkscape:connector-curvature="0"
         style="fill:#feffff" />
      <path
         d="m 197.66,289.94 c 26.18,-11.84 53.63,-21.16 81.88,-26.64 15.4,23.89 24.9,51.71 26.88,80.09 -6.5,-5 -13.31,-9.57 -20.32,-13.82 -7.05,30.72 -20.78,60.12 -40.97,84.42 -13.52,15.93 -30.08,30.04 -49.96,37.22 -13.23,4.89 -28.09,5.57 -41.53,1.09 10.77,1.78 19.7,-5.92 26.84,-12.9 16.4,-17.12 28.19,-38.01 38.64,-59.12 11.11,-22.9 20.1,-46.82 27.13,-71.28 -15.81,-7.28 -32.13,-13.42 -48.59,-19.06 z"
         id="path14"
         inkscape:connector-curvature="0"
         style="fill:#feffff" />
      <path
         d="m 606.56,289.72 c 26.27,-11.48 53.52,-21.07 81.74,-26.42 15.44,23.87 24.78,51.72 26.92,80.07 -6.56,-4.9 -13.31,-9.55 -20.33,-13.76 -8.72,36.97 -26.68,72.5 -54.6,98.65 -11.72,10.83 -25.46,19.86 -40.87,24.4 -11.98,3.55 -25.03,3.6 -36.92,-0.34 10.01,1.65 18.47,-5.15 25.3,-11.53 12.31,-12.13 21.76,-26.79 30.27,-41.74 15.82,-28.42 27.95,-58.84 36.92,-90.08 -13.3,-6.09 -26.93,-11.44 -40.72,-16.31 -2.61,-0.87 -5.26,-1.67 -7.71,-2.94 z"
         id="path16"
         inkscape:connector-curvature="0"
         style="fill:#feffff" />
    </g>
  </g>
</svg>
