<?xml version="1.0" encoding="UTF-8" standalone="no"?>
<svg
   xmlns:dc="http://purl.org/dc/elements/1.1/"
   xmlns:cc="http://creativecommons.org/ns#"
   xmlns:rdf="http://www.w3.org/1999/02/22-rdf-syntax-ns#"
   xmlns:svg="http://www.w3.org/2000/svg"
   xmlns="http://www.w3.org/2000/svg"
   xmlns:sodipodi="http://sodipodi.sourceforge.net/DTD/sodipodi-0.dtd"
   xmlns:inkscape="http://www.inkscape.org/namespaces/inkscape"
   width="800pt"
   height="800pt"
   viewBox="0 0 800 800"
   version="1.1"
   id="svg2"
   inkscape:version="0.48.4 r9939"
   sodipodi:docname="libcloud-logo-with-text.svg"
   inkscape:export-filename="/home/ilgiz/libcloud_logo/with-text/libcloud-logo-with-text-200-bg-white.png"
   inkscape:export-xdpi="18"
   inkscape:export-ydpi="18">
  <metadata
     id="metadata46">
    <rdf:RDF>
      <cc:Work
         rdf:about="">
        <dc:format>image/svg+xml</dc:format>
        <dc:type
           rdf:resource="http://purl.org/dc/dcmitype/StillImage" />
        <dc:title />
      </cc:Work>
    </rdf:RDF>
  </metadata>
  <defs
     id="defs44" />
  <sodipodi:namedview
     pagecolor="#ffffff"
     bordercolor="#666666"
     borderopacity="1"
     objecttolerance="10"
     gridtolerance="10"
     guidetolerance="10"
     inkscape:pageopacity="0"
     inkscape:pageshadow="2"
     inkscape:window-width="1920"
     inkscape:window-height="1148"
     id="namedview42"
     showgrid="false"
     inkscape:snap-grids="true"
     inkscape:snap-page="true"
     inkscape:zoom="0.944"
     inkscape:cx="240.14929"
     inkscape:cy="474.78059"
     inkscape:window-x="1366"
     inkscape:window-y="24"
     inkscape:window-maximized="1"
     inkscape:current-layer="svg2" />
  <g
     id="g3004">
    <g
       id="g3236">
      <path
         d=" M 383.37 97.58 C 434.17 92.92 486.39 105.92 528.99 133.98 C 539.56 140.87 549.60 148.58 558.84 157.17 C 560.62 158.46 562.10 161.51 564.67 160.57 C 597.58 151.88 633.09 153.33 665.15 164.79 C 694.65 175.14 721.25 193.74 740.87 218.12 C 764.51 247.29 778.31 284.41 779.00 321.99 C 779.99 359.82 767.80 397.82 745.09 428.08 C 713.70 470.49 661.82 496.95 608.99 496.78 C 593.48 497.15 578.10 494.55 563.07 491.02 C 557.42 495.64 552.25 500.93 546.37 505.32 C 516.83 528.79 481.42 544.79 444.29 551.48 C 405.28 558.59 364.42 555.26 327.07 541.93 C 296.92 531.26 269.09 514.14 245.89 492.15 C 244.85 490.68 243.09 491.17 241.63 491.51 C 211.31 499.33 178.81 498.52 148.91 489.23 C 124.42 481.70 101.65 468.60 82.92 451.09 C 60.83 430.55 44.39 404.00 35.71 375.11 C 26.19 343.71 26.01 309.54 35.24 278.05 C 44.67 245.48 64.15 215.92 90.33 194.37 C 116.47 172.67 149.20 158.95 183.05 155.78 C 202.75 153.85 222.80 155.42 241.97 160.38 C 243.27 160.67 244.86 161.18 245.76 159.81 C 282.87 124.35 332.27 102.13 383.37 97.58 Z"
         id="path6"
         fill="#bbc1c6" />
      <path
         d=" M 315.63 130.59 C 353.58 113.36 396.64 107.74 437.77 114.39 C 479.92 121.13 519.90 140.79 550.87 170.18 C 553.66 172.57 555.92 175.57 558.92 177.72 C 575.45 172.73 592.66 169.55 610.00 169.99 C 648.35 170.29 686.35 185.50 714.39 211.66 C 736.64 232.34 752.54 259.71 759.68 289.22 C 768.66 325.61 763.68 365.15 746.20 398.28 C 729.26 430.77 700.42 456.81 666.43 470.47 C 633.30 484.03 595.41 485.52 561.31 474.64 C 559.93 474.15 558.23 473.77 557.31 475.24 C 538.75 494.49 516.43 510.07 492.09 521.10 C 455.07 537.93 413.19 543.83 372.95 537.93 C 325.96 531.19 281.51 508.30 248.79 473.91 C 233.04 478.89 216.58 482.02 200.02 481.76 C 163.82 482.25 127.72 469.16 99.89 446.08 C 75.56 425.98 57.70 398.26 49.22 367.88 C 41.04 338.87 41.54 307.46 50.71 278.74 C 59.26 251.52 75.60 226.84 97.18 208.19 C 121.86 186.74 153.41 173.25 186.01 170.55 C 207.13 168.64 228.56 171.36 248.70 177.91 C 267.78 158.11 290.53 141.85 315.63 130.59 Z"
         id="path8"
         fill="#feffff" />
      <path
         d=" M 339.92 137.15 C 374.39 125.40 412.13 123.43 447.64 131.52 C 488.91 140.73 526.92 163.54 554.53 195.56 C 591.39 180.09 634.84 181.66 670.58 199.52 C 701.64 214.62 726.50 241.76 739.12 273.87 C 753.84 310.43 752.11 353.17 734.45 388.40 C 719.79 418.55 693.80 442.90 662.87 455.79 C 628.77 470.33 588.79 470.61 554.58 456.24 C 530.97 483.32 500.10 504.06 465.91 515.19 C 424.93 528.84 379.51 528.49 338.72 514.29 C 305.61 503.02 275.85 482.62 252.91 456.28 C 224.95 467.91 193.17 470.00 163.89 462.35 C 138.30 455.74 114.60 441.83 96.58 422.47 C 73.40 397.93 59.56 364.81 58.48 331.07 C 57.41 304.71 64.11 278.15 77.27 255.31 C 94.11 225.91 122.02 203.12 154.15 192.39 C 186.03 181.45 221.84 182.62 252.97 195.53 C 276.10 168.82 306.42 148.42 339.92 137.15 Z"
         id="path10"
         fill="#027cff" />
      <path
         d=" M 401.71 274.65 C 438.92 258.62 477.39 244.75 517.38 237.55 C 538.69 271.46 552.33 310.48 555.06 350.53 C 545.89 343.46 536.32 336.89 526.31 331.05 C 517.65 369.19 501.49 405.73 478.53 437.43 C 459.65 463.19 435.75 486.27 406.36 499.57 C 385.46 509.06 360.73 512.42 338.88 504.17 C 348.93 507.07 358.84 501.66 366.61 495.74 C 380.82 484.50 391.98 469.97 402.11 455.09 C 420.94 426.88 435.83 396.23 448.56 364.85 C 456.84 344.27 463.96 323.25 470.14 301.95 C 450.79 293.10 430.94 285.39 410.89 278.28 C 407.81 277.12 404.50 276.45 401.71 274.65 Z"
         id="path12"
         fill="#feffff" />
      <path
         d=" M 197.66 289.94 C 223.84 278.10 251.29 268.78 279.54 263.30 C 294.94 287.19 304.44 315.01 306.42 343.39 C 299.92 338.39 293.11 333.82 286.10 329.57 C 279.05 360.29 265.32 389.69 245.13 413.99 C 231.61 429.92 215.05 444.03 195.17 451.21 C 181.94 456.10 167.08 456.78 153.64 452.30 C 164.41 454.08 173.34 446.38 180.48 439.40 C 196.88 422.28 208.67 401.39 219.12 380.28 C 230.23 357.38 239.22 333.46 246.25 309.00 C 230.44 301.72 214.12 295.58 197.66 289.94 Z"
         id="path14"
         fill="#feffff" />
      <path
         d=" M 606.56 289.72 C 632.83 278.24 660.08 268.65 688.30 263.30 C 703.74 287.17 713.08 315.02 715.22 343.37 C 708.66 338.47 701.91 333.82 694.89 329.61 C 686.17 366.58 668.21 402.11 640.29 428.26 C 628.57 439.09 614.83 448.12 599.42 452.66 C 587.44 456.21 574.39 456.26 562.50 452.32 C 572.51 453.97 580.97 447.17 587.80 440.79 C 600.11 428.66 609.56 414.00 618.07 399.05 C 633.89 370.63 646.02 340.21 654.99 308.97 C 641.69 302.88 628.06 297.53 614.27 292.66 C 611.66 291.79 609.01 290.99 606.56 289.72 Z"
         id="path16"
         fill="#feffff" />
    </g>
  </g>
  <g
     style="font-size:32px;font-style:normal;font-weight:normal;line-height:125%;letter-spacing:0px;word-spacing:0px;fill:#000000;fill-opacity:1;stroke:none;font-family:Sans"
     id="text3023"
     transform="translate(-4.23999,0)">
    <path
       d="m 168.15279,575.16471 -16.376,0 0,125.488 16.376,0 0,-125.488"
       style="font-size:184px;font-variant:normal;font-stretch:normal;text-align:start;line-height:125%;writing-mode:lr-tb;text-anchor:start;font-family:Gill Sans Std;-inkscape-font-specification:Gill Sans Std"
       id="path3057"
       inkscape:connector-curvature="0" />
    <path
       d="m 203.74178,618.03671 -16.376,0 0,82.616 16.376,0 0,-82.616 m 1.656,-25.024 c 0,-5.33599 -4.41601,-9.752 -9.752,-9.752 -5.336,0 -9.752,4.41601 -9.752,9.752 0,5.33599 4.416,9.752 9.752,9.752 5.33599,0 9.752,-4.41601 9.752,-9.752"
       style="font-size:184px;font-variant:normal;font-stretch:normal;text-align:start;line-height:125%;writing-mode:lr-tb;text-anchor:start;font-family:Gill Sans Std;-inkscape-font-specification:Gill Sans Std"
       id="path3059"
       inkscape:connector-curvature="0" />
    <path
       d="m 239.92167,575.16471 -16.376,0 0,120.888 c 8.096,3.864 19.87202,6.256 30.728,6.256 27.59998,0 44.16,-16.74403 44.16,-44.712 0,-23.73598 -15.08802,-41.216 -35.696,-41.216 -8.27999,0 -15.64,2.39201 -22.816,7.544 l 0,-48.76 m 0,64.4 c 6.992,-6.25599 11.96001,-8.464 18.768,-8.464 13.79999,0 23,11.40802 23,28.888 0,15.63998 -10.48801,26.864 -25.208,26.864 -4.78399,0 -11.776,-1.104 -16.56,-2.576 l 0,-44.712"
       style="font-size:184px;font-variant:normal;font-stretch:normal;text-align:start;line-height:125%;writing-mode:lr-tb;text-anchor:start;font-family:Gill Sans Std;-inkscape-font-specification:Gill Sans Std"
       id="path3061"
       inkscape:connector-curvature="0" />
    <path
       d="m 369.37456,622.08471 c -7.91199,-3.496 -14.35201,-5.704 -23.92,-5.704 -25.02397,0 -40.848,17.29603 -40.848,44.528 0,24.28798 17.29603,41.4 41.952,41.4 8.64799,0 19.13601,-2.208 24.656,-4.784 l 0,-16.192 c -8.27999,3.68 -14.90401,5.52 -21.896,5.52 -16.92798,0 -27.968,-10.30402 -27.968,-27.416 0,-16.74398 10.30402,-27.968 25.208,-27.968 7.17599,0 13.43201,1.84001 22.816,8.096 l 0,-17.48"
       style="font-size:184px;font-variant:normal;font-stretch:normal;text-align:start;line-height:125%;writing-mode:lr-tb;text-anchor:start;font-family:Gill Sans Std;-inkscape-font-specification:Gill Sans Std"
       id="path3063"
       inkscape:connector-curvature="0" />
    <path
       d="m 400.81381,575.16471 -16.376,0 0,125.488 16.376,0 0,-125.488"
       style="font-size:184px;font-variant:normal;font-stretch:normal;text-align:start;line-height:125%;writing-mode:lr-tb;text-anchor:start;font-family:Gill Sans Std;-inkscape-font-specification:Gill Sans Std"
       id="path3065"
       inkscape:connector-curvature="0" />
    <path
       d="m 457.87507,616.38071 c -24.65598,0 -43.608,18.40002 -43.608,42.136 0,25.39197 18.21602,43.792 43.608,43.792 26.49597,0 44.712,-17.66403 44.712,-43.792 0,-24.47198 -18.76803,-42.136 -44.712,-42.136 m -0.184,14.72 c 16.37598,0 28.152,11.59202 28.152,27.6 0,17.84798 -10.85602,28.888 -28.152,28.888 -15.82399,0 -26.68,-11.59202 -26.68,-29.072 0,-15.82398 11.22401,-27.416 26.68,-27.416"
       style="font-size:184px;font-variant:normal;font-stretch:normal;text-align:start;line-height:125%;writing-mode:lr-tb;text-anchor:start;font-family:Gill Sans Std;-inkscape-font-specification:Gill Sans Std"
       id="path3067"
       inkscape:connector-curvature="0" />
    <path
       d="m 579.16098,700.65271 0,-82.616 -16.376,0 0,59.064 c -5.336,7.54399 -12.32801,11.592 -19.688,11.592 -11.22399,0 -16.928,-6.62401 -16.928,-18.216 l 0,-52.44 -16.376,0 0,51.336 c 0,20.97598 11.77601,32.936 28.52,32.936 8.09599,0 17.664,-4.78401 24.472,-12.144 l 0,10.488 16.376,0"
       style="font-size:184px;font-variant:normal;font-stretch:normal;text-align:start;line-height:125%;writing-mode:lr-tb;text-anchor:start;font-family:Gill Sans Std;-inkscape-font-specification:Gill Sans Std"
       id="path3069"
       inkscape:connector-curvature="0" />
    <path
       d="m 664.41492,575.16471 -16.376,0 0,44.528 c -6.62399,-2.392 -11.776,-3.312 -17.296,-3.312 -24.10397,0 -41.216,17.11202 -41.216,41.032 0,26.49597 15.45603,43.24 40.112,43.24 l 34.776,0 0,-125.488 m -16.376,111.688 -16.56,0 c -18.95198,0 -25.208,-11.59202 -25.208,-27.048 0,-17.29598 10.67202,-28.704 26.496,-28.704 5.52,0 9.75201,0.92 15.272,3.128 l 0,52.624"
       style="font-size:184px;font-variant:normal;font-stretch:normal;text-align:start;line-height:125%;writing-mode:lr-tb;text-anchor:start;font-family:Gill Sans Std;-inkscape-font-specification:Gill Sans Std"
       id="path3071"
       inkscape:connector-curvature="0" />
  </g>
</svg>
